<svg id="Capa_1" data-name="Capa 1" xmlns="http://www.w3.org/2000/svg" viewBox="0 0 857.96 308.98"><defs><style>.cls-1{fill:#015cab;}.cls-2{fill:#65baaf;}</style></defs><title>SM-</title><path class="cls-1" d="M335.32,110.08a3,3,0,0,1,1.51.43,50.21,50.21,0,0,0,7.51,3.43,22.15,22.15,0,0,0,7.64,1.48c3.51,0,6.08-.59,7.69-1.77a5.37,5.37,0,0,0,2.42-4.51,4.88,4.88,0,0,0-1.56-3.75,9.85,9.85,0,0,0-4-2.16q-2.46-.72-6.42-1.45a80.63,80.63,0,0,1-9.42-2.23A18.3,18.3,0,0,1,333.37,95Q330,91.69,330,85.84a13.73,13.73,0,0,1,3-9.17,16.59,16.59,0,0,1,7.54-5A30.23,30.23,0,0,1,350,70.11a31.46,31.46,0,0,1,9.85,1.4,30.08,30.08,0,0,1,7.82,3.94,2.28,2.28,0,0,1,1.09,2,2.2,2.2,0,0,1-.44,1.37l-2.81,3.82a2.22,2.22,0,0,1-2,1,2.51,2.51,0,0,1-1.44-.43A25.75,25.75,0,0,0,349,79.49a14.4,14.4,0,0,0-6.21,1.26,4.23,4.23,0,0,0-2.67,4.08,4.44,4.44,0,0,0,1.77,3.64A12.17,12.17,0,0,0,346,90.6q2.37.72,6.35,1.52l1.65.28a53.57,53.57,0,0,1,8.73,2.31,16.17,16.17,0,0,1,6.57,4.69q2.88,3.31,2.89,9.17,0,7.94-5.42,12.05t-14.64,4.11A33.73,33.73,0,0,1,340.66,123a38,38,0,0,1-9-4.69,2.62,2.62,0,0,1-1.16-2.17,3.31,3.31,0,0,1,.51-1.66l2.17-3.24A2.3,2.3,0,0,1,335.32,110.08Z"/><path class="cls-1" d="M382.94,123.72h-6.79a2,2,0,0,1-1.26-.36,1.13,1.13,0,0,1-.47-.94,3.41,3.41,0,0,1,.29-1l25-49.42c.38-.78.84-1.16,1.37-1.16s1,.38,1.37,1.16l25,49.42a3.41,3.41,0,0,1,.29,1,1.11,1.11,0,0,1-.47.94,2,2,0,0,1-1.26.36h-6.78a2.5,2.5,0,0,1-2.31-1.45l-3.39-6.85H388.57l-3.32,6.85A2.33,2.33,0,0,1,382.94,123.72Zm10.53-17.1h15.08l-7.5-16.52Z"/><path class="cls-1" d="M434.74,71.62c0-.52.22-.79.65-.79s.84.34,1.52,1l33.62,31.31V72.85a1.77,1.77,0,0,1,2-1.95h6.2a1.76,1.76,0,0,1,1.95,1.95V123c0,.53-.22.79-.65.79s-.77-.31-1.44-.94L444.77,92v29.73a1.76,1.76,0,0,1-1.95,2h-6.13a1.77,1.77,0,0,1-1.95-2Z"/><path class="cls-1" d="M496.22,123.72h-6.79a2,2,0,0,1-1.26-.36,1.13,1.13,0,0,1-.47-.94,3.41,3.41,0,0,1,.29-1L513,72c.38-.78.84-1.16,1.37-1.16s1,.38,1.37,1.16l25,49.42a3.41,3.41,0,0,1,.29,1,1.13,1.13,0,0,1-.47.94,2,2,0,0,1-1.26.36h-6.78a2.5,2.5,0,0,1-2.31-1.45l-3.39-6.85H501.85l-3.33,6.85A2.31,2.31,0,0,1,496.22,123.72Zm10.53-17.1h15.08l-7.5-16.52Z"/><path class="cls-1" d="M575.22,71.41a1.92,1.92,0,0,1,.51,1.44V77.9a1.76,1.76,0,0,1-2,1.95H560.65v41.92a1.77,1.77,0,0,1-1.95,2h-6.21a1.76,1.76,0,0,1-1.94-2V79.85H537.34a2,2,0,0,1-1.44-.5,2,2,0,0,1-.51-1.45V72.85a1.92,1.92,0,0,1,.51-1.44,2,2,0,0,1,1.44-.51h36.44A1.92,1.92,0,0,1,575.22,71.41Z"/><path class="cls-1" d="M592.68,121.08a25.43,25.43,0,0,1-9.63-9.92,29.69,29.69,0,0,1,0-27.67,25.91,25.91,0,0,1,9.63-9.92,29.64,29.64,0,0,1,28.61,0A25.66,25.66,0,0,1,631,83.49a29.62,29.62,0,0,1,0,27.67,25.2,25.2,0,0,1-9.67,9.92,29.86,29.86,0,0,1-28.61,0Zm5.63-39.39A17.25,17.25,0,0,0,592,88.15a18.18,18.18,0,0,0-2.35,9.16,18.41,18.41,0,0,0,2.35,9.2,17.18,17.18,0,0,0,6.31,6.49,17.26,17.26,0,0,0,17.39,0,16.89,16.89,0,0,0,6.28-6.49,18.59,18.59,0,0,0,2.31-9.2A18.36,18.36,0,0,0,622,88.15a17,17,0,0,0-15-8.8A16.75,16.75,0,0,0,598.31,81.69Z"/><path class="cls-1" d="M653.37,121.77a1.92,1.92,0,0,1-.51,1.44,2,2,0,0,1-1.44.51h-6.14a2,2,0,0,1-1.44-.51,1.91,1.91,0,0,1-.5-1.44V72.85a1.91,1.91,0,0,1,.5-1.44,2,2,0,0,1,1.44-.51h22a19,19,0,0,1,9.45,2.31,16.35,16.35,0,0,1,6.42,6.46,19,19,0,0,1,2.31,9.42,19.53,19.53,0,0,1-3,10.78,13.65,13.65,0,0,1-7.93,6.1L686,121.34a2.11,2.11,0,0,1,.43,1.15,1,1,0,0,1-.43.9,2,2,0,0,1-1.23.33h-7.57a2.77,2.77,0,0,1-2.39-1.23L663.4,106.91h-10ZM664.91,98.1q5.85,0,8.19-2.56A9.29,9.29,0,0,0,675.44,89a8.82,8.82,0,0,0-2.59-6.63q-2.6-2.53-7.94-2.53H653.37V98.1Z"/><path class="cls-1" d="M705.6,71.41a1.92,1.92,0,0,1,.51,1.44v48.92a1.77,1.77,0,0,1-2,2H698a1.76,1.76,0,0,1-2-2V72.85a1.76,1.76,0,0,1,2-1.95h6.2A1.93,1.93,0,0,1,705.6,71.41Z"/><path class="cls-1" d="M728.76,121.08a25.43,25.43,0,0,1-9.63-9.92,29.69,29.69,0,0,1,0-27.67,25.91,25.91,0,0,1,9.63-9.92,29.64,29.64,0,0,1,28.61,0A25.66,25.66,0,0,1,767,83.49a29.62,29.62,0,0,1,0,27.67,25.2,25.2,0,0,1-9.67,9.92,29.86,29.86,0,0,1-28.61,0Zm5.63-39.39a17.25,17.25,0,0,0-6.31,6.46,18.18,18.18,0,0,0-2.35,9.16,18.41,18.41,0,0,0,2.35,9.2,17.18,17.18,0,0,0,6.31,6.49,17.26,17.26,0,0,0,17.39,0,16.89,16.89,0,0,0,6.28-6.49,18.59,18.59,0,0,0,2.31-9.2,18.36,18.36,0,0,0-2.31-9.16,17,17,0,0,0-15-8.8A16.75,16.75,0,0,0,734.39,81.69Z"/><path class="cls-1" d="M286.18,222V142.86c0-1.76.83-3.17,3.06-3.17h.23c1.64,0,2.46.47,4.1,2.35L330,184.83,367,141.57c1.4-1.64,2.34-1.88,3.63-1.88h.12a2.88,2.88,0,0,1,3.16,3.17V222a3.2,3.2,0,0,1-3.51,3.51H355.71a3.2,3.2,0,0,1-3.52-3.51l.12-31.42L332.5,213.91c-1.53,1.87-3.4,1.87-4.93,0l-19.81-23.33V222a3.2,3.2,0,0,1-3.52,3.51H289.7A3.21,3.21,0,0,1,286.18,222Z"/><path class="cls-1" d="M387.61,182.6c0-24.38,19.11-44.43,45-44.43s45.14,20.05,45.14,44.43S458.66,227,432.63,227,387.61,207.11,387.61,182.6Zm21.57,0c0,15,10.43,25,23.45,25s23.45-10.19,23.45-25-10.44-24.85-23.45-24.85S409.18,168.3,409.18,182.6Z"/><path class="cls-1" d="M491.13,222V143.21a3.22,3.22,0,0,1,3.52-3.52h31.54c25.91,0,43.62,17,43.62,42.91s-17.59,42.91-43.62,42.91H494.65A3.21,3.21,0,0,1,491.13,222Zm35.06-15.6c9.85,0,21.81-4.22,21.81-23.68s-12.08-23.92-21.81-23.92H512.71v47.6Z"/><path class="cls-1" d="M642.85,158.8H602.17v13.95h35.76a3.21,3.21,0,0,1,3.51,3.52v10.91a3.2,3.2,0,0,1-3.51,3.51H602.17V206.4h40.68a3.21,3.21,0,0,1,3.52,3.52V222a3.2,3.2,0,0,1-3.52,3.51H584.23a3.2,3.2,0,0,1-3.52-3.51V143.21a3.21,3.21,0,0,1,3.52-3.52h58.62a3.21,3.21,0,0,1,3.52,3.52v12.08A3.21,3.21,0,0,1,642.85,158.8Z"/><path class="cls-1" d="M721.64,206.4a3.21,3.21,0,0,1,3.52,3.52V222a3.2,3.2,0,0,1-3.52,3.51H664.19a3.2,3.2,0,0,1-3.52-3.51V143.21a3.21,3.21,0,0,1,3.52-3.52h14.66a3.21,3.21,0,0,1,3.51,3.52V206.4Z"/><path class="cls-1" d="M724.11,182.6c0-24.38,19.11-44.43,45-44.43s45.14,20.05,45.14,44.43S795.16,227,769.13,227,724.11,207.11,724.11,182.6Zm21.57,0c0,15,10.44,25,23.45,25s23.45-10.19,23.45-25-10.44-24.85-23.45-24.85S745.68,168.3,745.68,182.6Z"/><path class="cls-1" d="M224.11,102.45V83.39A12.45,12.45,0,0,0,218,72.51L137,25.15a12,12,0,0,0-12.07-.08L84.35,48.74l23.91,14,.68-.4s13.42-7.83,17.32-10.13a9.3,9.3,0,0,1,9.14,0l63.41,37.09Q187.9,95.66,177,102q-20.72,12.13-41.49,24.24a9.66,9.66,0,0,1-9.31.08L37.52,74.52v70.34a12.58,12.58,0,0,0,5.94,10.6l81.39,47.59a11.7,11.7,0,0,0,12.08-.09l63.22-37v39.62l-64.77,37.87a9.47,9.47,0,0,1-9.05,0L61.45,205.55v-13l-23.94-14v33.84a11.94,11.94,0,0,0,5.77,10.48l81.46,47.61a12.21,12.21,0,0,0,6.17,1.66,11.7,11.7,0,0,0,5.9-1.56l80.73-47.2a12.55,12.55,0,0,0,6.58-11V124L138.67,174l-3.21,1.9a9.15,9.15,0,0,1-9.38-.08L61.46,138V116.47l63.19,36.94a11.85,11.85,0,0,0,12.14.08h0l86.64-50.64Z"/><path class="cls-2" d="M303.43,275.08h-11v7.43h12.88v4.59h-18.6V259.35H305.3V264H292.46v6.61h11Z"/><path class="cls-2" d="M318.63,268.92l5.2-9.57h6.57l-8.08,13.76,8.29,14H324l-5.33-9.72-5.34,9.72h-6.65l8.29-14-8.08-13.76h6.57Z"/><path class="cls-2" d="M354.8,277.86a9.81,9.81,0,0,1-3.31,7.05,11.6,11.6,0,0,1-7.86,2.58,10.44,10.44,0,0,1-8.4-3.6q-3.06-3.58-3.05-9.86v-1.7a16.68,16.68,0,0,1,1.4-7.05,10.61,10.61,0,0,1,4-4.68,12.57,12.57,0,0,1,13.82.95,10.55,10.55,0,0,1,3.4,7.22h-5.72a5.8,5.8,0,0,0-1.5-3.9,5.52,5.52,0,0,0-3.91-1.21,4.84,4.84,0,0,0-4.28,2c-.95,1.37-1.44,3.48-1.46,6.36v2.09q0,4.5,1.36,6.58a4.78,4.78,0,0,0,4.3,2.08,5.66,5.66,0,0,0,3.95-1.21,5.46,5.46,0,0,0,1.5-3.75Z"/><path class="cls-2" d="M375.25,275.08h-11v7.43h12.89v4.59h-18.6V259.35h18.56V264H364.27v6.61h11Z"/><path class="cls-2" d="M386.23,282.51h12.14v4.59H380.51V259.35h5.72Z"/><path class="cls-2" d="M418.34,275.08h-11v7.43h12.88v4.59h-18.6V259.35h18.56V264H407.37v6.61h11Z"/><path class="cls-2" d="M446.17,287.1h-5.72l-11.13-18.26V287.1h-5.71V259.35h5.71l11.15,18.3v-18.3h5.7Z"/><path class="cls-2" d="M473,277.86a9.84,9.84,0,0,1-3.3,7.05,11.62,11.62,0,0,1-7.87,2.58,10.42,10.42,0,0,1-8.39-3.6q-3.06-3.58-3.06-9.86v-1.7a16.68,16.68,0,0,1,1.41-7.05,10.59,10.59,0,0,1,4-4.68,12.59,12.59,0,0,1,13.83.95,10.54,10.54,0,0,1,3.39,7.22h-5.72a5.85,5.85,0,0,0-1.49-3.9,5.54,5.54,0,0,0-3.92-1.21,4.85,4.85,0,0,0-4.28,2c-.95,1.37-1.43,3.48-1.46,6.36v2.09c0,3,.46,5.19,1.36,6.58a4.79,4.79,0,0,0,4.3,2.08,5.69,5.69,0,0,0,4-1.21,5.45,5.45,0,0,0,1.49-3.75Z"/><path class="cls-2" d="M482.79,287.1h-5.72V259.35h5.72Z"/><path class="cls-2" d="M504.09,281.39h-10l-1.91,5.71h-6.08l10.33-27.75h5.3L512.1,287.1H506Zm-8.48-4.63h6.94l-3.49-10.39Z"/><path class="cls-2" d="M534,271.86l5.77-12.51H546L536.9,277V287.1h-5.82V277L522,259.35h6.27Z"/><path class="cls-2" d="M580.05,277.86a9.81,9.81,0,0,1-3.31,7.05,11.6,11.6,0,0,1-7.86,2.58,10.44,10.44,0,0,1-8.4-3.6q-3.06-3.58-3.05-9.86v-1.7a16.68,16.68,0,0,1,1.4-7.05,10.61,10.61,0,0,1,4-4.68,12.57,12.57,0,0,1,13.82.95,10.55,10.55,0,0,1,3.4,7.22h-5.72a5.8,5.8,0,0,0-1.5-3.9,5.52,5.52,0,0,0-3.91-1.21,4.84,4.84,0,0,0-4.28,2c-.95,1.37-1.44,3.48-1.46,6.36v2.09q0,4.5,1.36,6.58a4.78,4.78,0,0,0,4.3,2.08,5.66,5.66,0,0,0,4-1.21,5.46,5.46,0,0,0,1.5-3.75Z"/><path class="cls-2" d="M606.6,273.86a16.64,16.64,0,0,1-1.45,7.18,11,11,0,0,1-4.15,4.77,11.43,11.43,0,0,1-6.18,1.68,11.62,11.62,0,0,1-6.16-1.66,11.08,11.08,0,0,1-4.19-4.74A16.23,16.23,0,0,1,583,274v-1.37a16.77,16.77,0,0,1,1.47-7.22,11.1,11.1,0,0,1,4.17-4.78,12.23,12.23,0,0,1,12.34,0,11,11,0,0,1,4.17,4.78,16.71,16.71,0,0,1,1.48,7.2Zm-5.8-1.26q0-4.37-1.56-6.63a5.52,5.52,0,0,0-8.9,0q-1.56,2.24-1.58,6.57v1.35a11.83,11.83,0,0,0,1.56,6.59,5.47,5.47,0,0,0,8.92.09c1-1.51,1.55-3.7,1.56-6.59Z"/><path class="cls-2" d="M618.22,259.35l7.13,20.13,7.09-20.13H640V287.1h-5.73v-7.58l.57-13.1L627.3,287.1h-3.93l-7.47-20.66.57,13.08v7.58h-5.72V259.35Z"/><path class="cls-2" d="M650.66,277.33v9.77h-5.72V259.35h10.83a12.57,12.57,0,0,1,5.5,1.15,8.38,8.38,0,0,1,3.65,3.25,9.06,9.06,0,0,1,1.28,4.79,8,8,0,0,1-2.8,6.43q-2.79,2.36-7.72,2.36Zm0-4.63h5.11a5,5,0,0,0,3.46-1.07,3.9,3.9,0,0,0,1.19-3.05,4.59,4.59,0,0,0-1.2-3.3A4.45,4.45,0,0,0,655.9,264h-5.24Z"/><path class="cls-2" d="M680.39,277h-4.55V287.1h-5.72V259.35h10.31q4.92,0,7.59,2.2a7.55,7.55,0,0,1,2.67,6.19,8.57,8.57,0,0,1-1.23,4.74,8.4,8.4,0,0,1-3.73,3l6,11.34v.26H685.6Zm-4.55-4.64h4.61a4.73,4.73,0,0,0,3.34-1.09,3.91,3.91,0,0,0,1.18-3,4.21,4.21,0,0,0-1.11-3.09,4.66,4.66,0,0,0-3.43-1.12h-4.59Z"/><path class="cls-2" d="M717.83,273.86a16.64,16.64,0,0,1-1.45,7.18,11,11,0,0,1-4.15,4.77,11.41,11.41,0,0,1-6.18,1.68,11.62,11.62,0,0,1-6.16-1.66,11.08,11.08,0,0,1-4.19-4.74,16.23,16.23,0,0,1-1.5-7.08v-1.37a16.77,16.77,0,0,1,1.47-7.22,11.05,11.05,0,0,1,4.18-4.78,12.21,12.21,0,0,1,12.33,0,11,11,0,0,1,4.17,4.78,16.57,16.57,0,0,1,1.48,7.2ZM712,272.6c0-2.91-.53-5.12-1.57-6.63a5.52,5.52,0,0,0-8.9,0q-1.56,2.24-1.58,6.57v1.35a11.83,11.83,0,0,0,1.56,6.59,5.47,5.47,0,0,0,8.92.09c1-1.51,1.55-3.7,1.57-6.59Z"/><path class="cls-2" d="M729.45,259.35l7.13,20.13,7.1-20.13h7.5V287.1h-5.73v-7.58l.57-13.1-7.49,20.68H734.6l-7.47-20.66.57,13.08v7.58H722V259.35Z"/><path class="cls-2" d="M762.26,287.1h-5.72V259.35h5.72Z"/><path class="cls-2" d="M782,279.82a2.91,2.91,0,0,0-1.15-2.48,14.82,14.82,0,0,0-4.11-1.83,29.12,29.12,0,0,1-4.71-1.9c-3.15-1.7-4.73-4-4.73-6.88a6.65,6.65,0,0,1,1.27-4,8.22,8.22,0,0,1,3.64-2.76,13.72,13.72,0,0,1,5.33-1,12.45,12.45,0,0,1,5.3,1.08,8.45,8.45,0,0,1,3.61,3,8,8,0,0,1,1.29,4.46H782a3.73,3.73,0,0,0-1.2-3,4.93,4.93,0,0,0-3.38-1.06,5.29,5.29,0,0,0-3.26.88,2.82,2.82,0,0,0-1.16,2.34,2.68,2.68,0,0,0,1.36,2.27,15.32,15.32,0,0,0,4,1.71,17.27,17.27,0,0,1,7.1,3.64,7.26,7.26,0,0,1,2.24,5.42,6.68,6.68,0,0,1-2.73,5.65,12,12,0,0,1-7.34,2.05,14.19,14.19,0,0,1-5.83-1.18,9.22,9.22,0,0,1-4-3.21,8.14,8.14,0,0,1-1.38-4.72h5.73q0,4.59,5.49,4.59a5.34,5.34,0,0,0,3.18-.83A2.69,2.69,0,0,0,782,279.82Z"/><path class="cls-2" d="M814.35,273.86A16.64,16.64,0,0,1,812.9,281a11,11,0,0,1-4.15,4.77,11.41,11.41,0,0,1-6.18,1.68,11.62,11.62,0,0,1-6.16-1.66,11.08,11.08,0,0,1-4.19-4.74,16.23,16.23,0,0,1-1.5-7.08v-1.37a16.77,16.77,0,0,1,1.47-7.22,11.05,11.05,0,0,1,4.18-4.78,12.21,12.21,0,0,1,12.33,0,11,11,0,0,1,4.17,4.78,16.57,16.57,0,0,1,1.48,7.2Zm-5.79-1.26c0-2.91-.53-5.12-1.57-6.63a5.52,5.52,0,0,0-8.9,0q-1.56,2.24-1.58,6.57v1.35a11.83,11.83,0,0,0,1.56,6.59,5.47,5.47,0,0,0,8.92.09c1-1.51,1.55-3.7,1.57-6.59Z"/></svg>